<svg width="14" height="14" viewBox="0 0 14 14" fill="none" xmlns="http://www.w3.org/2000/svg">
<g id="angle-double-right">
<path id="Vector" d="M7.0082 7.46487L3.28945 11.1836C3.03242 11.4406 2.6168 11.4406 2.3625 11.1836L1.74453 10.5656C1.4875 10.3086 1.4875 9.89299 1.74453 9.6387L4.38047 7.00276L1.74453 4.36682C1.4875 4.10979 1.4875 3.69416 1.74453 3.43987L2.35977 2.81643C2.6168 2.5594 3.03242 2.5594 3.28672 2.81643L7.00547 6.53518C7.26523 6.79221 7.26523 7.20784 7.0082 7.46487ZM12.2582 6.53518L8.53945 2.81643C8.28242 2.5594 7.8668 2.5594 7.6125 2.81643L6.99453 3.4344C6.7375 3.69143 6.7375 4.10706 6.99453 4.36135L9.63047 6.99729L6.99453 9.63323C6.7375 9.89026 6.7375 10.3059 6.99453 10.5602L7.6125 11.1781C7.86953 11.4352 8.28516 11.4352 8.53945 11.1781L12.2582 7.4594C12.5152 7.20784 12.5152 6.79221 12.2582 6.53518Z" fill="#9747FF"/>
</g>
</svg>
