<svg width="24" height="25" viewBox="0 0 24 25" fill="none" xmlns="http://www.w3.org/2000/svg">
<g id="github" clip-path="url(#clip0_130_170)">
<path id="Vector" d="M8.15156 19.1281C8.15156 19.2219 8.04375 19.2969 7.90781 19.2969C7.75312 19.3109 7.64531 19.2359 7.64531 19.1281C7.64531 19.0344 7.75313 18.9594 7.88906 18.9594C8.02969 18.9453 8.15156 19.0203 8.15156 19.1281ZM6.69375 18.9172C6.66094 19.0109 6.75469 19.1187 6.89531 19.1469C7.01719 19.1937 7.15781 19.1469 7.18594 19.0531C7.21406 18.9594 7.125 18.8516 6.98438 18.8094C6.8625 18.7766 6.72656 18.8234 6.69375 18.9172ZM8.76562 18.8375C8.62969 18.8703 8.53594 18.9594 8.55 19.0672C8.56406 19.1609 8.68594 19.2219 8.82656 19.1891C8.9625 19.1562 9.05625 19.0672 9.04219 18.9734C9.02812 18.8844 8.90156 18.8234 8.76562 18.8375ZM11.85 0.875C5.34844 0.875 0.375 5.81094 0.375 12.3125C0.375 17.5109 3.64688 21.9594 8.32031 23.525C8.92031 23.6328 9.13125 23.2625 9.13125 22.9578C9.13125 22.6672 9.11719 21.0641 9.11719 20.0797C9.11719 20.0797 5.83594 20.7828 5.14688 18.6828C5.14688 18.6828 4.6125 17.3187 3.84375 16.9672C3.84375 16.9672 2.77031 16.2312 3.91875 16.2453C3.91875 16.2453 5.08594 16.3391 5.72812 17.4547C6.75469 19.2641 8.475 18.7437 9.14531 18.4344C9.25313 17.6844 9.55781 17.1641 9.89531 16.8547C7.275 16.5641 4.63125 16.1844 4.63125 11.675C4.63125 10.3859 4.9875 9.73906 5.7375 8.91406C5.61562 8.60938 5.21719 7.35312 5.85938 5.73125C6.83906 5.42656 9.09375 6.99688 9.09375 6.99688C10.0312 6.73438 11.0391 6.59844 12.0375 6.59844C13.0359 6.59844 14.0438 6.73438 14.9813 6.99688C14.9813 6.99688 17.2359 5.42188 18.2156 5.73125C18.8578 7.35781 18.4594 8.60938 18.3375 8.91406C19.0875 9.74375 19.5469 10.3906 19.5469 11.675C19.5469 16.1984 16.7859 16.5594 14.1656 16.8547C14.5969 17.225 14.9625 17.9281 14.9625 19.0297C14.9625 20.6094 14.9484 22.5641 14.9484 22.9484C14.9484 23.2531 15.1641 23.6234 15.7594 23.5156C20.4469 21.9594 23.625 17.5109 23.625 12.3125C23.625 5.81094 18.3516 0.875 11.85 0.875ZM4.93125 17.0422C4.87031 17.0891 4.88438 17.1969 4.96406 17.2859C5.03906 17.3609 5.14687 17.3938 5.20781 17.3328C5.26875 17.2859 5.25469 17.1781 5.175 17.0891C5.1 17.0141 4.99219 16.9812 4.93125 17.0422ZM4.425 16.6625C4.39219 16.7234 4.43906 16.7984 4.53281 16.8453C4.60781 16.8922 4.70156 16.8781 4.73438 16.8125C4.76719 16.7516 4.72031 16.6766 4.62656 16.6297C4.53281 16.6016 4.45781 16.6156 4.425 16.6625ZM5.94375 18.3312C5.86875 18.3922 5.89687 18.5328 6.00469 18.6219C6.1125 18.7297 6.24844 18.7437 6.30937 18.6688C6.37031 18.6078 6.34219 18.4672 6.24844 18.3781C6.14531 18.2703 6.00469 18.2563 5.94375 18.3312ZM5.40938 17.6422C5.33437 17.6891 5.33437 17.8109 5.40938 17.9188C5.48438 18.0266 5.61094 18.0734 5.67188 18.0266C5.74687 17.9656 5.74687 17.8438 5.67188 17.7359C5.60625 17.6281 5.48438 17.5813 5.40938 17.6422Z" fill="#D6D3D3"/>
</g>
<defs>
<clipPath id="clip0_130_170">
<rect width="24" height="24" fill="white" transform="translate(0 0.5)"/>
</clipPath>
</defs>
</svg>
