<svg width="25" height="26" viewBox="0 0 25 26" fill="none" xmlns="http://www.w3.org/2000/svg">
<g id="medium">
<path id="Vector" d="M1.5625 2.0625V23.9375H23.4375V2.0625H1.5625ZM19.7363 7.24316L18.5645 8.36621C18.4619 8.44434 18.4131 8.57129 18.4326 8.69336V16.96C18.4131 17.0869 18.4619 17.2139 18.5645 17.2871L19.7119 18.4102V18.6592H13.9502V18.4199L15.1367 17.2676C15.2539 17.1504 15.2539 17.1162 15.2539 16.9404V10.2559L11.9531 18.6348H11.5088L7.66602 10.2559V15.8711C7.63184 16.1055 7.71484 16.3447 7.88086 16.5156L9.42383 18.3857V18.6348H5.03906V18.3857L6.58203 16.5156C6.74805 16.3447 6.82129 16.1055 6.78223 15.8711V9.37695C6.80176 9.19629 6.7334 9.02051 6.59668 8.89844L5.22461 7.24316V6.99414H9.4873L12.7783 14.2207L15.6738 6.99902H19.7363V7.24316Z" fill="#D6D3D3"/>
</g>
</svg>
