<svg width="24" height="25" viewBox="0 0 24 25" fill="none" xmlns="http://www.w3.org/2000/svg">
<g id="twitter-square">
<path id="Vector" d="M20.25 2H3.75C2.50781 2 1.5 3.00781 1.5 4.25V20.75C1.5 21.9922 2.50781 23 3.75 23H20.25C21.4922 23 22.5 21.9922 22.5 20.75V4.25C22.5 3.00781 21.4922 2 20.25 2ZM17.9578 9.44375C17.9672 9.575 17.9672 9.71094 17.9672 9.84219C17.9672 13.9062 14.8734 18.5891 9.22031 18.5891C7.47656 18.5891 5.85938 18.0828 4.5 17.2109C4.74844 17.2391 4.9875 17.2484 5.24063 17.2484C6.67969 17.2484 8.00156 16.7609 9.05625 15.9359C7.70625 15.9078 6.57188 15.0219 6.18281 13.8031C6.65625 13.8734 7.08281 13.8734 7.57031 13.7469C6.16406 13.4609 5.10938 12.2234 5.10938 10.7281V10.6906C5.51719 10.9203 5.99531 11.0609 6.49687 11.0797C6.0752 10.7992 5.72952 10.4187 5.49069 9.9721C5.25186 9.52552 5.1273 9.02675 5.12813 8.52031C5.12812 7.94844 5.27813 7.42344 5.54531 6.96875C7.05938 8.83437 9.33281 10.0531 11.8828 10.1844C11.4469 8.09844 13.0078 6.40625 14.8828 6.40625C15.7688 6.40625 16.5656 6.77656 17.1281 7.37656C17.8219 7.24531 18.4875 6.9875 19.0781 6.63594C18.8484 7.34844 18.3656 7.94844 17.7281 8.32812C18.3469 8.2625 18.9469 8.08906 19.5 7.85C19.0828 8.46406 18.5578 9.00781 17.9578 9.44375Z" fill="#D6D3D3"/>
</g>
</svg>
