<svg width="16" height="16" viewBox="0 0 16 16" fill="none" xmlns="http://www.w3.org/2000/svg">
<g id="angle-double-right">
<path id="Vector" d="M8.00937 8.53135L3.75937 12.7813C3.46563 13.0751 2.99063 13.0751 2.7 12.7813L1.99375 12.0751C1.7 11.7813 1.7 11.3063 1.99375 11.0157L5.00625 8.00322L1.99375 4.99072C1.7 4.69697 1.7 4.22197 1.99375 3.93135L2.69687 3.21885C2.99062 2.9251 3.46562 2.9251 3.75625 3.21885L8.00625 7.46885C8.30312 7.7626 8.30312 8.2376 8.00937 8.53135ZM14.0094 7.46885L9.75937 3.21885C9.46562 2.9251 8.99062 2.9251 8.7 3.21885L7.99375 3.9251C7.7 4.21885 7.7 4.69385 7.99375 4.98447L11.0062 7.99697L7.99375 11.0095C7.7 11.3032 7.7 11.7782 7.99375 12.0688L8.7 12.7751C8.99375 13.0688 9.46875 13.0688 9.75937 12.7751L14.0094 8.5251C14.3031 8.2376 14.3031 7.7626 14.0094 7.46885Z" fill="#9747FF"/>
</g>
</svg>
