<svg width="140" height="123" viewBox="0 0 140 123" fill="none" xmlns="http://www.w3.org/2000/svg">
<g id="Group 18">
<g id="Group 14">
<circle id="Ellipse 8" cx="4.00664" cy="4.00664" r="4.00664" transform="matrix(4.37114e-08 1 1 -4.37114e-08 118.33 32.5825)" fill="url(#paint0_radial_163_502)"/>
<g id="Vector 9" filter="url(#filter0_f_163_502)">
<path d="M119.992 35.7641C120.358 34.7968 121.04 34.4935 121.981 34.7626C122.921 35.0316 124.92 36.536 123.767 36.1514C122.615 35.7667 120.248 35.5657 119.766 36.7732C119.688 36.8399 119.625 36.7313 119.992 35.7641Z" fill="url(#paint1_linear_163_502)"/>
</g>
</g>
<g id="Group 16">
<circle id="Ellipse 8_2" cx="5.92293" cy="5.92293" r="5.92293" transform="matrix(-0.866025 -0.5 -0.5 0.866025 24.5312 103.127)" fill="url(#paint2_radial_163_502)"/>
<g id="Vector 9_2" filter="url(#filter1_f_163_502)">
<path d="M19.2301 102.902C20.1973 104.087 20.0816 105.184 19.042 106.189C18.0023 107.194 14.5993 108.641 15.9435 107.45C17.2876 106.259 19.2947 103.377 18.1047 101.868C18.0768 101.719 18.2628 101.718 19.2301 102.902Z" fill="url(#paint3_linear_163_502)"/>
</g>
</g>
<g id="Group 15">
<circle id="Ellipse 8_3" cx="10.2846" cy="10.2846" r="10.2846" transform="matrix(4.37114e-08 1 1 -4.37114e-08 99.6892 10.2136)" fill="url(#paint4_radial_163_502)"/>
<g id="Vector 9_3" filter="url(#filter2_f_163_502)">
<path d="M103.954 18.3804C104.895 15.8975 106.646 15.1188 109.06 15.8096C111.474 16.5003 116.604 20.3619 113.646 19.3746C110.688 18.3872 104.612 17.8712 103.375 20.9707C103.176 21.1418 103.013 20.8633 103.954 18.3804Z" fill="url(#paint5_linear_163_502)"/>
</g>
</g>
</g>
<defs>
<filter id="filter0_f_163_502" x="104.706" y="19.6689" width="34.4092" height="32.1202" filterUnits="userSpaceOnUse" color-interpolation-filters="sRGB">
<feFlood flood-opacity="0" result="BackgroundImageFix"/>
<feBlend mode="normal" in="SourceGraphic" in2="BackgroundImageFix" result="shape"/>
<feGaussianBlur stdDeviation="7.5" result="effect1_foregroundBlur_163_502"/>
</filter>
<filter id="filter1_f_163_502" x="0.633667" y="86.7998" width="34.2593" height="36.0983" filterUnits="userSpaceOnUse" color-interpolation-filters="sRGB">
<feFlood flood-opacity="0" result="BackgroundImageFix"/>
<feBlend mode="normal" in="SourceGraphic" in2="BackgroundImageFix" result="shape"/>
<feGaussianBlur stdDeviation="7.5" result="effect1_foregroundBlur_163_502"/>
</filter>
<filter id="filter2_f_163_502" x="88.2218" y="0.569031" width="41.3179" height="35.4424" filterUnits="userSpaceOnUse" color-interpolation-filters="sRGB">
<feFlood flood-opacity="0" result="BackgroundImageFix"/>
<feBlend mode="normal" in="SourceGraphic" in2="BackgroundImageFix" result="shape"/>
<feGaussianBlur stdDeviation="7.5" result="effect1_foregroundBlur_163_502"/>
</filter>
<radialGradient id="paint0_radial_163_502" cx="0" cy="0" r="1" gradientUnits="userSpaceOnUse" gradientTransform="translate(4.77767 2.9303) rotate(115.431) scale(7.14841 6.9591)">
<stop offset="0.498176" stop-color="#6B63FF"/>
<stop offset="1" stop-color="#FD8F8F"/>
</radialGradient>
<linearGradient id="paint1_linear_163_502" x1="120.62" y1="35.9524" x2="124.516" y2="35.9485" gradientUnits="userSpaceOnUse">
<stop offset="0.169219" stop-color="white"/>
<stop offset="0.976025" stop-color="#FFB6B6"/>
</linearGradient>
<radialGradient id="paint2_radial_163_502" cx="0" cy="0" r="1" gradientUnits="userSpaceOnUse" gradientTransform="translate(7.06273 4.3318) rotate(115.431) scale(10.5673 10.2875)">
<stop offset="0.498176" stop-color="#6B63FF"/>
<stop offset="1" stop-color="#FD8F8F"/>
</radialGradient>
<linearGradient id="paint3_linear_163_502" x1="18.5243" y1="103.568" x2="15.6498" y2="108.558" gradientUnits="userSpaceOnUse">
<stop offset="0.169219" stop-color="white"/>
<stop offset="0.976025" stop-color="#FFB6B6"/>
</linearGradient>
<radialGradient id="paint4_radial_163_502" cx="0" cy="0" r="1" gradientUnits="userSpaceOnUse" gradientTransform="translate(12.2638 7.52178) rotate(115.431) scale(18.3492 17.8633)">
<stop offset="0.498176" stop-color="#6B63FF"/>
<stop offset="1" stop-color="#FD8F8F"/>
</radialGradient>
<linearGradient id="paint5_linear_163_502" x1="105.568" y1="18.8638" x2="115.568" y2="18.8537" gradientUnits="userSpaceOnUse">
<stop offset="0.169219" stop-color="white"/>
<stop offset="0.976025" stop-color="#FFB6B6"/>
</linearGradient>
</defs>
</svg>
