<svg width="64" height="64" viewBox="0 0 64 64" fill="none" xmlns="http://www.w3.org/2000/svg">
<g id="Go-Logo_LightBlue 1">
<g id="Group">
<g id="Group_2">
<g id="Group_3">
<g id="Group_4">
<path id="Vector" d="M7.16609 28.1795C7.052 28.1795 7.02348 28.115 7.08052 28.0182L7.6795 27.1471C7.73655 27.0504 7.87916 26.9858 7.99326 26.9858H18.1759C18.29 26.9858 18.3185 27.0826 18.2615 27.1794L17.7766 28.0182C17.7196 28.115 17.5769 28.2118 17.4914 28.2118L7.16609 28.1795Z" fill="#5DC9E1"/>
</g>
</g>
</g>
<g id="Group_5">
<g id="Group_6">
<g id="Group_7">
<path id="Vector_2" d="M2.85909 31.1477C2.745 31.1477 2.71647 31.0832 2.77352 30.9864L3.3725 30.1153C3.42954 30.0185 3.57216 29.954 3.68625 29.954H16.6927C16.8068 29.954 16.8638 30.0508 16.8353 30.1476L16.6071 30.9219C16.5786 31.0509 16.4645 31.1154 16.3504 31.1154L2.85909 31.1477Z" fill="#5DC9E1"/>
</g>
</g>
</g>
<g id="Group_8">
<g id="Group_9">
<g id="Group_10">
<path id="Vector_3" d="M9.76155 34.1159C9.64746 34.1159 9.61894 34.0191 9.67598 33.9223L10.0753 33.1157C10.1323 33.0189 10.2464 32.9221 10.3605 32.9221H16.0651C16.1792 32.9221 16.2362 33.0189 16.2362 33.148L16.1792 33.9223C16.1792 34.0513 16.0651 34.1481 15.9795 34.1481L9.76155 34.1159Z" fill="#5DC9E1"/>
</g>
</g>
</g>
<g id="Group_11">
<g id="CXHf1q_7_">
<g id="Group_12">
<g id="Group_13">
<path id="Vector_4" d="M39.3683 27.5988C37.5714 28.115 36.3449 28.5022 34.5765 29.0184C34.1486 29.1474 34.1201 29.1797 33.7493 28.6958C33.3215 28.1473 33.0077 27.7924 32.4087 27.4698C30.6118 26.4696 28.8719 26.76 27.2461 27.9537C25.3066 29.3733 24.3083 31.4703 24.3368 34.0836C24.3653 36.6646 25.9341 38.7939 28.1874 39.1488C30.1269 39.4392 31.7527 38.6649 33.0362 37.0195C33.293 36.6646 33.5211 36.2774 33.8064 35.8258C32.7795 35.8258 31.496 35.8258 28.3015 35.8258C27.7025 35.8258 27.5599 35.4064 27.7595 34.8579C28.1303 33.8578 28.8149 32.1801 29.2142 31.3413C29.2998 31.1477 29.4994 30.8251 29.9273 30.8251C31.3819 30.8251 36.7442 30.8251 40.3096 30.8251C40.2525 31.6962 40.2525 32.5673 40.1384 33.4383C39.8247 35.7612 39.0546 37.8906 37.7996 39.7618C35.7459 42.8267 33.0648 44.7302 29.6706 45.2464C26.8753 45.6658 24.2797 45.0528 21.9979 43.1171C19.8872 41.3104 18.6893 38.923 18.3755 35.9548C18.0047 32.4382 18.9174 29.2765 20.7999 26.5019C22.8251 23.5015 25.5062 21.598 28.7863 20.9205C31.4675 20.372 34.0345 20.7269 36.3449 22.5013C37.8566 23.6305 38.9405 25.1791 39.6536 27.0504C39.8247 27.3407 39.7106 27.502 39.3683 27.5988Z" fill="#5DC9E1"/>
</g>
<g id="Group_14">
<path id="Vector_5" d="M48.8093 45.44C46.2137 45.3755 43.8463 44.5367 41.8497 42.6009C40.1669 40.9555 39.1115 38.8584 38.7693 36.3742C38.2558 32.7286 39.1401 29.5023 41.0796 26.631C43.1618 23.5338 45.6718 21.9206 49.066 21.2431C51.9753 20.6624 54.7135 20.985 57.195 22.8885C59.4483 24.6307 60.8459 26.9858 61.2167 30.083C61.7016 34.4385 60.5892 37.9874 57.9366 41.02C56.0541 43.1816 53.7438 44.5367 51.0911 45.1496C50.321 45.311 49.5509 45.3432 48.8093 45.44ZM55.5977 32.4059C55.5692 31.9865 55.5692 31.6639 55.5122 31.3413C54.9988 28.1473 52.4032 26.3406 49.6935 27.0504C47.0409 27.7279 45.3295 29.6314 44.702 32.664C44.1886 35.1805 45.2725 37.7293 47.3261 38.7617C48.8949 39.536 50.4636 39.4392 51.9753 38.5681C54.2286 37.2453 55.4551 35.1805 55.5977 32.4059Z" fill="#5DC9E1"/>
</g>
</g>
</g>
</g>
</g>
</g>
</svg>
