<svg width="64" height="32" viewBox="0 0 64 32" fill="none" xmlns="http://www.w3.org/2000/svg">
<g id="nestjs-ar21 1">
<path id="Vector" fill-rule="evenodd" clip-rule="evenodd" d="M16.9465 5.27521C16.7912 5.27521 16.6441 5.30948 16.5131 5.35584C16.7953 5.54532 16.9525 5.79527 17.0311 6.08151C17.0372 6.12183 17.0472 6.14803 17.0513 6.18633C17.0553 6.22463 17.0634 6.25285 17.0634 6.28712C17.0835 6.77694 16.9364 6.83742 16.8295 7.12768C16.7538 7.30303 16.7214 7.49405 16.7351 7.68457C16.7487 7.87509 16.8081 8.05951 16.9082 8.22224C16.9259 8.26544 16.9482 8.30666 16.9747 8.3452C16.763 6.9382 17.9362 6.72655 18.1539 6.28913C18.17 5.88598 17.8515 5.65014 17.6036 5.47074C17.4069 5.34671 17.179 5.28101 16.9465 5.28126V5.27521ZM18.7143 5.59168C18.6941 5.71868 18.7082 5.68642 18.7022 5.75294L18.6901 5.89808L18.6498 6.03112C18.6375 6.07626 18.6227 6.12067 18.6054 6.16416L18.5449 6.29115C18.5288 6.31131 18.5167 6.33549 18.5006 6.35767L18.4663 6.40806L18.3857 6.51893C18.3514 6.5532 18.3252 6.59149 18.2849 6.61972C18.2446 6.64794 18.2184 6.68624 18.1801 6.71446C18.0632 6.80315 17.9301 6.86967 17.8072 6.95635C17.7669 6.98457 17.7265 7.00674 17.6963 7.03697C17.6661 7.06721 17.6237 7.09342 17.5915 7.12567C17.5592 7.15792 17.525 7.19219 17.4907 7.23049C17.4564 7.26879 17.4302 7.30305 17.4101 7.34135L17.3294 7.45827L17.269 7.58526L17.2246 7.71225L17.1843 7.85335C17.1783 7.87351 17.1783 7.90375 17.1722 7.92592C17.1662 7.94809 17.1662 7.97027 17.1601 7.99244L17.1541 8.13354C17.1533 8.16725 17.1553 8.20096 17.1601 8.23433C17.1601 8.27868 17.1662 8.32302 17.1762 8.37543C17.1863 8.42784 17.1924 8.46413 17.2045 8.50847L17.2488 8.64151C17.2609 8.66973 17.277 8.69795 17.2891 8.72214L16.0111 8.22627L15.3661 8.05896L15.0154 7.97833C14.6807 7.91191 14.343 7.86213 14.0035 7.82916C13.6634 7.79168 13.3216 7.77284 12.9795 7.77272L12.2538 7.80094C11.9127 7.82546 11.573 7.86649 11.2358 7.9239L10.9859 7.96825L10.486 8.07912L10.236 8.14564L9.99414 8.25046L9.81272 8.33109L9.6313 8.41978C9.61518 8.42583 9.60308 8.43187 9.59099 8.4359L9.41763 8.5246C9.37732 8.54072 9.337 8.56491 9.30677 8.58104C9.29064 8.59313 9.26645 8.6012 9.25637 8.60926L9.11124 8.68989C9.06085 8.71811 9.0165 8.74633 8.9782 8.77052L8.86733 8.85115L8.74639 8.93984L8.65165 9.02047C8.59118 9.06482 8.56296 9.09304 8.53474 9.11521L8.41379 9.23212L8.30292 9.33694L8.20818 9.43773C8.19609 9.44983 8.17996 9.45789 8.16787 9.472C8.13965 9.50627 8.1074 9.53852 8.07313 9.57279L7.92396 9.73405L7.6216 10.0223C7.5233 10.11 7.41963 10.1914 7.31118 10.2662L6.97656 10.4779C6.86295 10.5403 6.74584 10.5962 6.62582 10.6452C6.50891 10.6956 6.38393 10.7399 6.26299 10.7782C6.02916 10.8286 5.7913 10.9233 5.58368 10.9395C5.53933 10.9395 5.48894 10.9516 5.44258 10.9556L5.30148 10.9899L5.16844 11.0403C5.12409 11.0564 5.07974 11.0806 5.0354 11.1007C4.99105 11.1209 4.95477 11.1511 4.91445 11.1814C4.87501 11.2099 4.83794 11.2416 4.80359 11.2761C4.76327 11.3043 4.72296 11.3426 4.69272 11.3769L4.59798 11.4877C4.56976 11.5321 4.53751 11.5684 4.51735 11.6147C4.49719 11.6611 4.46091 11.6954 4.43672 11.7417L4.37625 11.8869L4.32585 12.032L4.29763 12.165C4.28151 12.2316 4.28151 12.2981 4.27748 12.3323C4.27344 12.3666 4.26538 12.4049 4.26538 12.4432C4.26538 12.4634 4.26538 12.4936 4.27143 12.5158C4.27748 12.5561 4.28352 12.5883 4.29159 12.6206L4.3319 12.7214C4.34803 12.7617 4.37222 12.794 4.39237 12.8262L4.46494 12.927L4.55968 13.0157C4.59395 13.05 4.6262 13.0762 4.6645 13.1044C4.79754 13.2213 4.83181 13.2596 5.00315 13.3463C5.03137 13.3624 5.05959 13.3745 5.09184 13.3906C5.12006 13.4712 5.13215 13.5116 5.14223 13.5579C5.15231 13.6043 5.17045 13.6527 5.18658 13.691L5.23092 13.7917L5.31155 13.9409L5.39218 14.0578L5.48692 14.1626C5.52119 14.1969 5.55344 14.2231 5.59174 14.2574L5.70261 14.338C5.74158 14.3655 5.7827 14.3897 5.82557 14.4106C5.86589 14.4307 5.9062 14.4549 5.95256 14.4711C5.98683 14.4872 6.02513 14.4993 6.06343 14.5114C6.10173 14.5235 6.136 14.5315 6.15817 14.5396C6.14204 14.842 6.13801 15.1443 6.17833 15.2249C6.22872 15.3358 6.47263 14.9972 6.71855 14.6081C6.68428 15.0113 6.66211 15.4426 6.71855 15.5757C6.77499 15.7087 7.11363 15.2814 7.4039 14.8016C11.3467 13.8905 14.9428 16.6158 15.3258 20.4619C15.2532 19.8612 14.5134 19.5286 14.1768 19.6112C14.0095 20.0224 13.7273 20.5506 13.2697 20.8811C13.3093 20.5096 13.2903 20.1341 13.2133 19.7684C13.0923 20.2804 12.8505 20.7562 12.5239 21.1694C12.2692 21.1867 12.0142 21.141 11.7815 21.0362C11.5487 20.9314 11.3454 20.7708 11.1895 20.5687C11.1693 20.5526 11.1613 20.5183 11.1451 20.4961L11.0867 20.3591C11.0705 20.3187 11.0585 20.2784 11.0524 20.2421C11.0464 20.2059 11.0464 20.1615 11.0464 20.1212V20.0406C11.0524 20.0003 11.0625 19.9599 11.0746 19.9237L11.1149 19.8067C11.1351 19.7664 11.1552 19.7261 11.1814 19.6898C11.2762 19.4237 11.2762 19.206 11.1008 19.0791C11.0665 19.0589 11.0343 19.0387 10.996 19.0226C10.9758 19.0166 10.9456 19.0065 10.9234 19.0025L10.8791 18.9863L10.7621 18.9581C10.7241 18.9473 10.6848 18.9419 10.6452 18.942C10.6046 18.9352 10.5635 18.9311 10.5223 18.9299C10.494 18.9299 10.4658 18.9359 10.4416 18.9359C10.3973 18.9359 10.361 18.942 10.3207 18.9521L10.2038 18.9722L10.0869 19.0125L9.976 19.0629L9.87118 19.1194C8.57505 19.966 9.34708 21.9414 10.234 22.5179C9.8994 22.5784 9.56075 22.651 9.46803 22.7235C9.69581 22.8787 9.94576 23.0017 10.2078 23.1267L11.1088 23.3928C11.5689 23.4914 12.0402 23.5267 12.5098 23.4976C14.973 23.3242 16.9928 21.4516 17.3597 18.9823L17.3939 19.1274L17.4443 19.4379C17.4564 19.4943 17.4605 19.5427 17.4645 19.587L17.4766 19.7543L17.4887 19.9357V20.0244C17.4887 20.0527 17.4947 20.0849 17.4947 20.1131C17.4947 20.1414 17.4887 20.1797 17.4887 20.2139V20.2946C17.4887 20.3349 17.4826 20.3671 17.4826 20.4054C17.4826 20.4256 17.4826 20.4498 17.4766 20.478L17.4705 20.5989C17.4645 20.6151 17.4645 20.6332 17.4645 20.6493L17.4484 20.7763C17.4484 20.7924 17.4484 20.8106 17.4423 20.8267L17.4222 20.988V20.998L17.3879 21.1533L17.3536 21.3206L17.2649 21.6632L17.2085 21.8406L17.0876 22.1632L17.021 22.3244L16.9404 22.4796C16.9344 22.4957 16.9283 22.5078 16.9243 22.5199C16.5536 23.2623 16.0145 23.9077 15.35 24.4047C15.3056 24.4329 15.2613 24.4651 15.2169 24.4994C15.2048 24.5115 15.1887 24.5155 15.1766 24.5276L15.0557 24.6083L15.0718 24.6425H15.0779L15.3117 24.6083H15.3177L15.7511 24.5276C15.7914 24.5216 15.8317 24.5115 15.8721 24.4994L15.9527 24.4833L16.0696 24.4631L16.1704 24.4349C16.7214 24.3005 17.2607 24.1219 17.783 23.9007C16.8896 25.1182 15.7014 26.0886 14.33 26.7208C14.9721 26.6782 15.6079 26.5681 16.2268 26.3922C18.4683 25.731 20.3531 24.2232 21.4819 22.1934C21.2541 23.4774 20.7421 24.701 19.9862 25.7693C20.5264 25.4125 21.0203 25.0033 21.4718 24.5357C22.7175 23.2335 23.5359 21.5826 23.8101 19.8088C23.9996 20.6876 24.052 21.5947 23.9713 22.4897C27.9867 16.89 24.3059 11.0846 22.7619 9.55464C22.7417 9.59496 22.7337 9.65946 22.7296 9.728L22.6732 10.1009L22.5785 10.4678L22.4454 10.8246L22.2781 11.1632L22.0765 11.4797L21.8488 11.782C21.7681 11.8828 21.6754 11.9715 21.5867 12.0602L21.4254 12.2013L21.2985 12.3122C21.1995 12.391 21.0958 12.4637 20.988 12.5299L20.6595 12.7194L20.3087 12.8746C20.1904 12.9194 20.07 12.9584 19.9479 12.9915L19.575 13.0721C19.448 13.0923 19.319 13.1064 19.196 13.1165L18.9299 13.1286C18.803 13.1286 18.6739 13.1165 18.551 13.1084C18.4236 13.099 18.2969 13.0808 18.172 13.054C18.045 13.0338 17.9221 12.9975 17.7991 12.9592H17.7931L18.1599 12.9149L18.5328 12.8343L18.8957 12.7174C19.0166 12.673 19.1376 12.6166 19.2464 12.5621C19.3609 12.5065 19.4726 12.4453 19.581 12.3787L19.8915 12.1771C19.9913 12.0998 20.0862 12.0163 20.1757 11.9272C20.2686 11.842 20.3561 11.7511 20.4377 11.6551L20.6716 11.3527C20.6837 11.3366 20.6917 11.3124 20.7058 11.2963L20.8671 11.0302L21.0344 10.6915L21.1674 10.3347C21.2077 10.2178 21.234 10.0928 21.2622 9.9719L21.3186 9.59899L21.3388 9.22003L21.3287 8.95395L21.2843 8.58104L21.2037 8.20812L21.0828 7.85134C21.0384 7.73442 20.982 7.61751 20.9276 7.50866L20.7381 7.18009L20.5365 6.8737L20.2805 6.59149L20.1354 6.45039L19.3633 5.90614C19.323 5.88598 19.2908 5.86583 19.2525 5.8497C19.0711 5.73279 18.8957 5.67231 18.7243 5.61587L18.7143 5.59168Z" fill="#EA2845"/>
<path id="Vector_2" d="M29.8452 19.7664C29.9743 19.7051 30.1103 19.6597 30.2504 19.6314C30.5628 19.581 30.7402 19.5386 30.7906 19.5044C30.8753 19.454 30.9317 19.3834 30.9599 19.3189C30.9942 19.198 31.0103 18.9561 31.0103 18.5671V17.8313L31.0184 17.2306L30.9922 16.3336V15.8035C30.9922 15.4487 30.966 15.1524 30.9075 14.9327C30.8914 14.848 30.8148 14.7633 30.6959 14.6787C30.5346 14.5577 30.2927 14.4509 29.8936 14.34L29.8855 13.9369L30.079 13.8966C30.1395 13.8885 30.3673 13.828 30.7644 13.7272L31.3651 13.4914L31.5062 13.4148C31.5783 13.3534 31.6544 13.2969 31.734 13.2455C31.9617 13.066 32.1662 12.8588 32.3427 12.6287L32.7902 12.5944L32.7741 13.5499C32.766 13.6426 32.766 13.7192 32.766 13.7776L32.7741 14.1667C33.2478 13.7635 33.6711 13.4813 34.0601 13.3201C34.5113 13.1208 34.9981 13.0145 35.4913 13.0076C35.9881 12.9976 36.4765 13.1359 36.8943 13.4047C37.2894 13.6668 37.5595 13.9691 37.7006 14.3118C37.8417 14.6545 37.886 15.36 37.886 16.4001L37.8518 19.1738C37.8499 19.2845 37.8733 19.3941 37.9203 19.4943C38.07 19.5628 38.2301 19.6058 38.394 19.6213L38.8092 19.6979C38.8621 19.7778 38.8888 19.8722 38.8858 19.968L38.8778 20.2462L37.2128 20.1252L36.7229 20.1414H36.3339L35.2091 20.226H34.9209C34.9128 20.1494 34.9128 20.099 34.9128 20.0567L34.9289 19.7261C35.0055 19.71 35.2071 19.6858 35.5216 19.6415C35.6062 19.6334 35.6989 19.6072 35.8098 19.581C35.9207 19.5407 35.9872 19.4883 36.0033 19.4459C36.0436 19.3451 36.0719 19.1677 36.0719 18.8956L36.0557 17.797L36.0638 16.8154C36.0638 15.614 35.9953 14.8702 35.8622 14.5839C35.6606 14.1526 35.322 13.9389 34.8906 13.9389C34.5492 13.9469 34.2138 14.0309 33.909 14.1848C33.5213 14.3745 33.165 14.6227 32.8527 14.9206L32.8366 15.0617L32.8527 15.5938L32.8446 16.1582L32.8789 17.5189L32.8628 17.7305C32.8628 18.6517 32.8971 19.1758 32.9737 19.2947C33.0503 19.4137 33.3284 19.5407 33.8203 19.6838L33.8465 19.8954C33.8465 19.964 33.8203 20.0648 33.786 20.2079L33.3385 20.2159C33.1516 20.2102 32.9651 20.1934 32.7801 20.1655L31.8489 20.1575L29.8875 20.218C29.8641 20.1618 29.8524 20.1014 29.8533 20.0406L29.8613 19.7705L29.8452 19.7664ZM39.8312 15.7228C39.9824 15.2391 40.1094 14.9206 40.2283 14.7674C40.5408 14.3037 40.8794 13.9611 41.2362 13.6789C41.593 13.3967 41.9216 13.2475 42.2078 13.1628C42.5033 13.0675 42.8106 13.0132 43.1209 13.0016C43.5532 12.9898 43.9853 13.0325 44.407 13.1286C44.7025 13.1909 44.9836 13.3086 45.2355 13.4753C45.5137 13.6676 45.7687 13.8915 45.9954 14.1425C46.1944 14.382 46.3518 14.6532 46.461 14.9448C46.596 15.2984 46.6676 15.673 46.6727 16.0514L45.7253 16.0353C45.153 16.0221 44.5811 15.9966 44.0099 15.9587L43.3326 15.9244L42.4195 15.9325H41.6837L41.6676 16.134C41.6676 16.4364 41.7079 16.7509 41.7784 17.0895C41.849 17.4282 41.9639 17.7063 42.109 17.9603C42.2525 18.2058 42.4389 18.4236 42.6593 18.6033C42.8609 18.7888 43.1068 18.9158 43.3366 19.0004L43.8264 19.1617L44.7053 19.1214C44.9476 19.0719 45.185 19.0011 45.4149 18.9097C45.6799 18.783 45.9317 18.6304 46.1667 18.4542L46.6828 18.8573C46.1849 19.3975 45.6588 19.8047 45.1266 20.0668C44.5944 20.3288 43.9937 20.4296 43.3124 20.4296C42.8649 20.4296 42.5001 20.3953 42.2138 20.3087C41.8487 20.2133 41.5024 20.0566 41.1898 19.845C40.8838 19.6273 40.612 19.365 40.3835 19.067C40.1417 18.7646 39.9945 18.432 39.8857 18.1034C39.7506 17.6721 39.674 17.3254 39.674 17.0714C39.6696 16.623 39.7101 16.1753 39.7949 15.7349L39.8312 15.7228ZM44.7698 15.36C44.7617 15.0375 44.7013 14.7432 44.5844 14.4469C44.4675 14.1506 44.282 13.9389 44.026 13.7817C43.805 13.6276 43.5435 13.542 43.2741 13.5357C42.871 13.5357 42.5545 13.7051 42.2421 14.0336C41.9296 14.3622 41.7684 14.8399 41.726 15.3943L43.6612 15.4023L44.1852 15.3761L44.54 15.3499L44.7678 15.358L44.7698 15.36ZM47.995 17.8232C48.1176 17.7954 48.2424 17.7785 48.3679 17.7729L48.5453 17.7809L48.6219 17.8656L49.2307 18.8472C49.4242 19.075 49.6197 19.2625 49.8354 19.4056C49.9624 19.4903 50.166 19.5911 50.4441 19.6838C50.637 19.7522 50.8403 19.7863 51.0448 19.7846C51.3814 19.7932 51.7084 19.6719 51.958 19.4459C52.212 19.2101 52.3611 18.9621 52.3611 18.694C52.3611 18.5167 52.3107 18.3635 52.22 18.2385C52.1293 18.1135 51.9318 17.9845 51.6455 17.8353C51.5044 17.7749 51.1476 17.6741 50.5711 17.533L49.5875 17.2548C49.3273 17.1577 49.0869 17.0143 48.8779 16.8315C48.6795 16.6605 48.5183 16.4505 48.4042 16.2147C48.2631 15.8922 48.2026 15.614 48.2026 15.4084C48.2026 14.977 48.2712 14.6303 48.3881 14.3521C48.5166 14.0773 48.6973 13.8302 48.9202 13.6244C49.0815 13.4632 49.3234 13.3221 49.656 13.1931C49.9958 13.0634 50.3566 12.9977 50.7203 12.9996C51.1964 12.9932 51.6721 13.0303 52.1414 13.1104C52.4994 13.1709 52.847 13.2822 53.1735 13.441C53.2138 13.568 53.2581 13.8724 53.3246 14.338L53.4174 15.1746C53.4174 15.2149 53.4093 15.2592 53.3912 15.3015C53.2704 15.3406 53.145 15.3636 53.0183 15.3701C52.9679 15.3701 52.8832 15.362 52.7723 15.354C52.7 15.2387 52.6328 15.1203 52.5708 14.9992C52.3006 14.4912 52.0205 14.1364 51.7342 13.9349C51.448 13.7333 51.1255 13.6224 50.7264 13.6224C50.3272 13.6224 50.0067 13.7434 49.7447 13.9611C49.6487 14.045 49.573 14.1495 49.5231 14.2668C49.4732 14.384 49.4504 14.5111 49.4564 14.6384C49.4564 14.8238 49.5572 15.0113 49.7588 15.2028C49.9604 15.3943 50.299 15.5495 50.7909 15.6503C51.5367 15.8115 52.085 15.9809 52.4317 16.1401C52.9396 16.3759 53.3025 16.6642 53.5061 16.9867C53.7097 17.3092 53.8185 17.6801 53.8185 18.1034C53.8185 18.7626 53.5645 19.3129 53.0666 19.7523C52.5687 20.1917 51.8572 20.4034 50.9017 20.4034C50.5769 20.388 50.2527 20.3598 49.9301 20.3187C49.6943 20.2925 49.4141 20.2341 49.0936 20.1494C48.8818 20.0766 48.6733 19.9945 48.4687 19.9035C48.4158 19.8729 48.3699 19.8317 48.3337 19.7826C48.3175 19.7322 48.2732 19.4943 48.2228 19.073L48.0817 17.8293L47.995 17.8232ZM54.9614 13.7635C55.6266 13.4854 56.1104 13.2052 56.4067 12.9572C56.703 12.7093 57.0235 12.2376 57.3622 11.6268H57.846C57.8967 11.7768 57.9226 11.9341 57.9226 12.0925L57.9145 12.7859L57.8883 13.2838L57.8964 13.4773L58.0899 13.4854L58.8841 13.4511L59.519 13.435C59.5527 13.5676 59.5722 13.7034 59.5775 13.8401C59.5775 13.9752 59.5513 14.1284 59.509 14.2957C59.3688 14.3166 59.2274 14.328 59.0857 14.33C59.0453 14.33 58.9506 14.33 58.8155 14.3138H58.3761L58.2229 14.3058L57.8198 14.3219L57.8036 17.5471L57.8379 18.7223C57.8739 18.884 57.9432 19.0364 58.0415 19.1698C58.1767 19.2322 58.324 19.2638 58.4729 19.2625C58.624 19.2625 58.7349 19.2464 58.8115 19.2222C58.8881 19.198 59.0131 19.1113 59.1844 18.9763C59.2187 18.942 59.2772 18.9077 59.3457 18.8553C59.4722 18.9468 59.586 19.0545 59.6843 19.1758L59.7186 19.2766C59.5106 19.5953 59.2182 19.85 58.874 20.0123C58.5192 20.1897 58.1383 20.2744 57.7331 20.2744C57.2009 20.2744 56.7776 20.1051 56.447 19.7765C56.1165 19.4479 55.9572 18.9218 55.9572 18.2203L55.9915 16.7327V14.3118L55.7294 14.3037L55.1126 14.3118L55.0017 14.2856C54.9704 14.2451 54.9528 14.1957 54.9514 14.1445L54.9675 13.7414L54.9614 13.7635Z" fill="#EA2845"/>
</g>
</svg>
