<svg width="64" height="32" viewBox="0 0 64 32" fill="none" xmlns="http://www.w3.org/2000/svg">
<g id="nodejs-ar21 1">
<g id="Group">
<path id="Vector" d="M56.9515 13.5102C56.8068 13.5102 56.6662 13.54 56.5417 13.6105L52.6026 15.8853C52.3477 16.0321 52.1927 16.3095 52.1927 16.6045V21.1459C52.1927 21.4408 52.3477 21.7178 52.6026 21.8651L53.6313 22.4579C54.1311 22.7043 54.3155 22.7004 54.543 22.7004C55.2829 22.7004 55.7053 22.2514 55.7053 21.4709V16.9906C55.7053 16.9272 55.6505 16.8819 55.5883 16.8819H55.0949C55.0316 16.8819 54.9778 16.9284 54.9778 16.9906V21.4733C54.9778 21.8192 54.6175 22.1672 54.0328 21.8748L52.9634 21.2475C52.9256 21.227 52.8965 21.1894 52.8965 21.1472V16.6058C52.8965 16.5628 52.9253 16.5189 52.9634 16.4971L56.8942 14.2305C56.9311 14.2093 56.9749 14.2093 57.0113 14.2305L60.9421 16.4971C60.9795 16.5196 61.009 16.5614 61.009 16.6058V21.1472C61.009 21.1906 60.9873 21.235 60.9505 21.2559L57.0114 23.5225C56.9765 23.5427 56.93 23.5427 56.8943 23.5225L55.8824 22.9204C55.8522 22.9028 55.8111 22.9042 55.7821 22.9204C55.5027 23.0788 55.4502 23.0971 55.1883 23.188C55.1238 23.2104 55.0256 23.2454 55.2218 23.3554L56.5432 24.1342C56.669 24.207 56.8091 24.2429 56.953 24.2429C57.0989 24.2429 57.237 24.208 57.3629 24.1342L61.302 21.8676C61.5569 21.7192 61.7118 21.4433 61.7118 21.1484V16.607C61.7118 16.312 61.5569 16.0351 61.302 15.8877L57.3629 13.6129C57.2394 13.5425 57.0979 13.5126 56.953 13.5126L56.9515 13.5102ZM58.0053 16.7553C56.8836 16.7553 56.2156 17.2327 56.2156 18.0265C56.2156 18.8866 56.8786 19.1242 57.9552 19.2307C59.2432 19.3568 59.3436 19.5459 59.3436 19.7994C59.3436 20.2392 58.993 20.4267 58.1644 20.4267C57.1233 20.4267 56.8945 20.1668 56.8179 19.6479C56.8088 19.5923 56.766 19.5476 56.7092 19.5476H56.1977C56.1669 19.5482 56.1375 19.5608 56.1157 19.5826C56.0939 19.6044 56.0814 19.6338 56.0807 19.6646C56.0807 20.3275 56.4412 21.1114 58.1632 21.1114C59.4096 21.1114 60.1285 20.6232 60.1285 19.7649C60.1285 18.9164 59.5478 18.6871 58.3388 18.527C57.1183 18.3643 57.0007 18.2864 57.0007 18.0001C57.0007 17.7639 57.0995 17.448 58.0043 17.448C58.8125 17.448 59.1112 17.6223 59.2337 18.1672C59.2444 18.2184 59.2895 18.2602 59.3424 18.2602H59.8539C59.8853 18.2602 59.9157 18.2409 59.9376 18.2184C59.959 18.1943 59.9741 18.1672 59.971 18.1347C59.892 17.1962 59.2662 16.7547 58.0057 16.7547L58.0053 16.7553Z" fill="#83CD29"/>
<path id="Vector_2" d="M33.7934 7.55681C33.7494 7.55689 33.7062 7.56843 33.668 7.59029C33.63 7.61252 33.5984 7.64427 33.5764 7.6824C33.5545 7.72054 33.5428 7.76375 33.5426 7.80777V14.2057C33.5426 14.2685 33.5133 14.3248 33.4589 14.3563C33.4322 14.3718 33.4019 14.38 33.3711 14.38C33.3402 14.38 33.3099 14.3718 33.2832 14.3563L32.2378 13.7542C32.1615 13.71 32.075 13.6868 31.9869 13.6868C31.8988 13.6868 31.8123 13.71 31.736 13.7542L27.5628 16.1627C27.4068 16.2527 27.3117 16.4259 27.3117 16.6059V21.4232C27.3116 21.5113 27.3348 21.598 27.3788 21.6743C27.4229 21.7507 27.4863 21.814 27.5627 21.858L31.736 24.2667C31.8122 24.3109 31.8988 24.3342 31.9869 24.3342C32.075 24.3342 32.1616 24.3109 32.2378 24.2667L36.4111 21.858C36.4875 21.814 36.5509 21.7507 36.595 21.6743C36.639 21.598 36.6622 21.5113 36.662 21.4232V9.41348C36.662 9.23075 36.5623 9.0593 36.4028 8.97026L33.9189 7.5818C33.8799 7.56007 33.8366 7.55635 33.7934 7.55681ZM6.94711 13.57C6.86748 13.5733 6.79274 13.5871 6.72126 13.6286L2.54808 16.0372C2.47164 16.0811 2.40817 16.1445 2.36411 16.2208C2.32006 16.2972 2.29699 16.3839 2.29724 16.472L2.30573 22.9371C2.30573 23.027 2.35222 23.1105 2.43127 23.1544C2.5088 23.2009 2.60492 23.2009 2.68211 23.1544L5.15762 21.7326C5.31455 21.6396 5.41684 21.4773 5.41684 21.2979V18.2786C5.41684 18.0984 5.51157 17.9334 5.66791 17.8439L6.72172 17.2334C6.79787 17.1891 6.88448 17.166 6.97256 17.1664C7.0607 17.1659 7.14736 17.189 7.22352 17.2334L8.27687 17.8435C8.43298 17.933 8.52771 18.0983 8.52771 18.2782V21.2974C8.52771 21.4771 8.63232 21.6403 8.78692 21.7321L11.2624 23.154C11.3403 23.2005 11.4362 23.2005 11.5133 23.154C11.59 23.1098 11.6388 23.0264 11.6388 22.9366L11.6472 16.4718C11.6477 16.3836 11.6247 16.2968 11.5806 16.2204C11.5366 16.144 11.473 16.0807 11.3963 16.0369L7.22317 13.6285C7.15262 13.5871 7.07753 13.5732 6.99732 13.5699H6.94734L6.94711 13.57ZM44.4482 13.6286C44.3601 13.6284 44.2735 13.6515 44.1973 13.6956L40.024 16.1042C39.8682 16.1943 39.7729 16.359 39.7729 16.539V21.3562C39.7729 21.5373 39.875 21.7014 40.0321 21.791L44.1719 24.1506C44.3248 24.2378 44.5113 24.2444 44.6654 24.1587L47.1744 22.762C47.254 22.7178 47.3078 22.6353 47.308 22.5446C47.3083 22.454 47.2612 22.3724 47.1825 22.3273L42.984 19.9186C42.9054 19.8737 42.8503 19.7829 42.8503 19.6927V18.1864C42.8503 18.0964 42.9061 18.0139 42.984 17.9691L44.2886 17.2163C44.3663 17.1714 44.4616 17.1714 44.5397 17.2163L45.8449 17.9691C45.8832 17.991 45.9149 18.0227 45.9369 18.0609C45.9589 18.099 45.9705 18.1423 45.9704 18.1864V19.374C45.9703 19.4181 45.9818 19.4614 46.0038 19.4996C46.0258 19.5378 46.0576 19.5694 46.0958 19.5914C46.174 19.6365 46.2687 19.6367 46.3469 19.5914L48.8474 18.1364C49.0025 18.0462 49.0984 17.8811 49.0984 17.7017V16.5393C49.0985 16.4512 49.0753 16.3646 49.0312 16.2883C48.9872 16.212 48.9238 16.1486 48.8475 16.1045L44.6993 13.6958C44.6231 13.6517 44.5365 13.6285 44.4483 13.6288L44.4482 13.6286ZM31.9701 17.225C31.9935 17.2249 32.0165 17.2306 32.0371 17.2416L33.4671 18.0696C33.5059 18.092 33.5341 18.1335 33.5341 18.1783V19.8342C33.5341 19.8792 33.5062 19.9206 33.4671 19.9429L32.0371 20.7708C31.9981 20.7929 31.9506 20.7929 31.9115 20.7708L30.4814 19.9429C30.4425 19.9205 30.4145 19.879 30.4145 19.8342V18.178C30.4145 18.1332 30.4426 18.092 30.4814 18.0694L31.9115 17.2415C31.931 17.2302 31.9482 17.225 31.9701 17.225Z" fill="#404137"/>
<path id="Vector_3" d="M19.4838 13.6034C19.3957 13.6032 19.3091 13.6263 19.2327 13.6703L15.0594 16.0707C14.9034 16.1606 14.8086 16.3339 14.8086 16.5139V21.3311C14.8084 21.4193 14.8314 21.5059 14.8755 21.5822C14.9195 21.6586 14.983 21.7219 15.0594 21.7658L19.2327 24.1745C19.3089 24.2188 19.3955 24.2421 19.4836 24.2421C19.5717 24.2421 19.6583 24.2188 19.7345 24.1745L23.9078 21.7658C23.9842 21.7218 24.0476 21.6585 24.0917 21.5821C24.1358 21.5058 24.1589 21.4192 24.1588 21.331V16.5138C24.1588 16.3336 24.0639 16.1604 23.9077 16.0705L19.7344 13.6702C19.6581 13.626 19.5715 13.6029 19.4833 13.6033L19.4838 13.6034ZM44.4401 17.9022C44.4234 17.9022 44.405 17.9022 44.3899 17.9104L43.587 18.3788C43.572 18.3871 43.5595 18.3992 43.5507 18.4139C43.5419 18.4285 43.5371 18.4453 43.5368 18.4624V19.3824C43.5368 19.417 43.5569 19.4486 43.587 19.4661L44.3899 19.926C44.4036 19.9346 44.4195 19.9391 44.4358 19.9391C44.452 19.9391 44.4679 19.9346 44.4817 19.926L45.2845 19.4661C45.3143 19.449 45.3348 19.417 45.3348 19.3824V18.4624C45.3348 18.4277 45.3144 18.3961 45.2845 18.3787L44.4817 17.9102C44.4668 17.9014 44.4566 17.9021 44.4398 17.9021L44.4401 17.9022Z" fill="#83CD29"/>
</g>
</g>
</svg>
