<svg width="36" height="36" viewBox="0 0 36 36" fill="none" xmlns="http://www.w3.org/2000/svg">
<g id="vscode 1" clip-path="url(#clip0_152_219)">
<g id="Mask group">
<mask id="mask0_152_219" style="mask-type:alpha" maskUnits="userSpaceOnUse" x="0" y="0" width="36" height="36">
<g id="Group">
<path id="Vector" fill-rule="evenodd" clip-rule="evenodd" d="M25.5283 35.7542C26.0953 35.9751 26.7418 35.9609 27.3141 35.6855L34.7259 32.1191C35.5047 31.7443 36 30.9561 36 30.0914V5.90879C36 5.04407 35.5047 4.25585 34.7259 3.88109L27.3141 0.314552C26.563 -0.0468467 25.6841 0.0416734 25.0249 0.520902C24.9307 0.589359 24.841 0.665795 24.7568 0.750027L10.5678 13.6949L4.38739 9.00346C3.81204 8.56674 3.00731 8.60252 2.47296 9.0886L0.490691 10.8918C-0.162919 11.4863 -0.163668 12.5146 0.489071 13.1101L5.84896 18L0.489071 22.89C-0.163668 23.4855 -0.162919 24.5138 0.490691 25.1083L2.47296 26.9115C3.00731 27.3975 3.81204 27.4333 4.38739 26.9966L10.5678 22.3051L24.7568 35.25C24.9813 35.4746 25.2449 35.6437 25.5283 35.7542ZM27.0055 9.8276L16.2393 18L27.0055 26.1724V9.8276Z" fill="white"/>
</g>
</mask>
<g mask="url(#mask0_152_219)">
<g id="Group_2">
<path id="Vector_2" d="M34.7261 3.88663L27.3085 0.315196C26.4499 -0.0981973 25.4238 0.0761809 24.75 0.75L0.467458 22.89C-0.18568 23.4854 -0.184929 24.5137 0.469078 25.1083L2.45255 26.9114C2.98722 27.3975 3.79246 27.4333 4.36814 26.9966L33.6099 4.81317C34.5909 4.06894 36 4.76863 36 6.00001V5.9139C36 5.04954 35.5048 4.26161 34.7261 3.88663Z" fill="#0065A9"/>
<g id="Group_3" filter="url(#filter0_d_152_219)">
<path id="Vector_3" d="M34.7261 32.1134L27.3085 35.6848C26.4499 36.0983 25.4238 35.9238 24.75 35.25L0.467458 13.1101C-0.18568 12.5146 -0.184929 11.4863 0.469078 10.8917L2.45255 9.08856C2.98722 8.60248 3.79246 8.5667 4.36814 9.00342L33.6099 31.1868C34.5909 31.9311 36 31.2314 36 30V30.0861C36 30.9505 35.5048 31.7384 34.7261 32.1134Z" fill="#007ACC"/>
</g>
<g id="Group_4" filter="url(#filter1_d_152_219)">
<path id="Vector_4" d="M27.3088 35.6855C26.45 36.0986 25.4239 35.9239 24.75 35.25C25.5803 36.0803 27 35.4922 27 34.318V1.68197C27 0.507739 25.5803 -0.0803198 24.75 0.749983C25.4239 0.076103 26.45 -0.0985215 27.3088 0.314506L34.7251 3.88105C35.5044 4.25581 36 5.04403 36 5.90875V30.0914C36 30.9561 35.5044 31.7443 34.7251 32.1191L27.3088 35.6855Z" fill="#1F9CF0"/>
</g>
<g id="Group_5" style="mix-blend-mode:overlay" opacity="0.25">
<path id="Vector_5" fill-rule="evenodd" clip-rule="evenodd" d="M25.5064 35.7542C26.0734 35.9751 26.7199 35.9609 27.2922 35.6855L34.704 32.1191C35.4828 31.7444 35.9781 30.9561 35.9781 30.0914V5.90883C35.9781 5.04407 35.4828 4.25585 34.704 3.88109L27.2922 0.314567C26.5411 -0.0468312 25.6621 0.0416888 25.0029 0.520914C24.9088 0.589375 24.8191 0.66581 24.7349 0.750043L10.5459 13.6949L4.36547 9.00349C3.79016 8.56674 2.9854 8.60256 2.45105 9.0886L0.46878 10.8918C-0.18483 11.4863 -0.185579 12.5146 0.46716 13.1101L5.82704 18L0.46716 22.89C-0.185579 23.4855 -0.18483 24.5138 0.46878 25.1083L2.45105 26.9115C2.9854 27.3975 3.79016 27.4333 4.36547 26.9966L10.5459 22.3051L24.7349 35.2501C24.9594 35.4746 25.2229 35.6438 25.5064 35.7542ZM26.9836 9.82764L16.2174 18L26.9836 26.1725V9.82764Z" fill="url(#paint0_linear_152_219)"/>
</g>
</g>
</g>
</g>
</g>
<defs>
<filter id="filter0_d_152_219" x="-8.35525" y="0.365116" width="52.6886" height="43.8751" filterUnits="userSpaceOnUse" color-interpolation-filters="sRGB">
<feFlood flood-opacity="0" result="BackgroundImageFix"/>
<feColorMatrix in="SourceAlpha" type="matrix" values="0 0 0 0 0 0 0 0 0 0 0 0 0 0 0 0 0 0 127 0" result="hardAlpha"/>
<feOffset/>
<feGaussianBlur stdDeviation="4.16667"/>
<feColorMatrix type="matrix" values="0 0 0 0 0 0 0 0 0 0 0 0 0 0 0 0 0 0 0.25 0"/>
<feBlend mode="overlay" in2="BackgroundImageFix" result="effect1_dropShadow_152_219"/>
<feBlend mode="normal" in="SourceGraphic" in2="effect1_dropShadow_152_219" result="shape"/>
</filter>
<filter id="filter1_d_152_219" x="16.4167" y="-8.24055" width="27.9167" height="52.4811" filterUnits="userSpaceOnUse" color-interpolation-filters="sRGB">
<feFlood flood-opacity="0" result="BackgroundImageFix"/>
<feColorMatrix in="SourceAlpha" type="matrix" values="0 0 0 0 0 0 0 0 0 0 0 0 0 0 0 0 0 0 127 0" result="hardAlpha"/>
<feOffset/>
<feGaussianBlur stdDeviation="4.16667"/>
<feColorMatrix type="matrix" values="0 0 0 0 0 0 0 0 0 0 0 0 0 0 0 0 0 0 0.25 0"/>
<feBlend mode="overlay" in2="BackgroundImageFix" result="effect1_dropShadow_152_219"/>
<feBlend mode="normal" in="SourceGraphic" in2="effect1_dropShadow_152_219" result="shape"/>
</filter>
<linearGradient id="paint0_linear_152_219" x1="17.9781" y1="0.0928495" x2="17.9781" y2="35.9073" gradientUnits="userSpaceOnUse">
<stop stop-color="white"/>
<stop offset="1" stop-color="white" stop-opacity="0"/>
</linearGradient>
<clipPath id="clip0_152_219">
<rect width="36" height="36" fill="white"/>
</clipPath>
</defs>
</svg>
